<?xml version="1.0" encoding="utf-8"?>
<!-- Generator: Adobe Illustrator 24.3.0, SVG Export Plug-In . SVG Version: 6.00 Build 0)  -->
<svg version="1.1" id="Capa_1" xmlns="http://www.w3.org/2000/svg" xmlns:xlink="http://www.w3.org/1999/xlink" x="0px" y="0px"
	 viewBox="0 0 595.28 841.89" style="enable-background:new 0 0 595.28 841.89;" xml:space="preserve">
<style type="text/css">
	.st0{fill:#951B81;}
	.st1{fill:#D4007F;}
</style>
<rect x="164.99" y="224.81" class="st0" width="324.1" height="324.1"/>
<rect x="80.65" y="140.47" class="st0" width="84.34" height="84.34"/>
<g>
	<g>
		<path class="st0" d="M-94.05,44.17c3.22,0,3.22-5,0-5C-97.27,39.17-97.27,44.17-94.05,44.17L-94.05,44.17z"/>
	</g>
</g>
<g>
	<g>
		<path class="st1" d="M73.46,315.1c28.97-39.83,67.12-72.79,110.51-96.04c10.75-5.76,21.81-10.93,33.14-15.44
			c5.64-2.24,11.35-4.32,17.1-6.24c5.5-1.83,11.15-3.63,17-3.74c5.96-0.11,11.51,1.95,14.51,7.39c3.02,5.47,3.21,12.38,2.75,18.45
			c-1.01,13.63-6.76,26.88-12.98,38.88c-23.37,45.06-63.51,78.18-94.86,117.31c-33.16,41.4-59.52,88.12-77.74,137.94
			c-3.36,9.18-9.01,23.49,1.58,30.27c10.16,6.5,23.78-2.85,32.14-8.32c21.72-14.2,39.67-33.24,56.72-52.6
			c38.49-43.68,76.73-87.75,112.54-133.68c16.65-21.35,31.81-44.22,50.5-63.87c17.34-18.23,38.88-33.21,64.37-36.56
			c5.92-0.78,11.97-0.88,17.9-0.18c2.91,0.35,5.8,0.92,8.62,1.69c1.4,0.38,2.79,0.81,4.16,1.28c1.31,0.46,4,0.98,4.95,2
			c0.69,0.73,0.99,2.59,1.23,3.52c0.41,1.61,0.65,3.25,0.73,4.91c0.15,3.19-0.21,6.35-0.95,9.45c-1.52,6.39-4.38,12.35-7.68,18.01
			c-6.66,11.43-14.75,22.16-22.63,32.76c-8.2,11.03-16.72,21.82-25.46,32.44c-34.28,41.63-71.81,80.42-108.01,120.36
			c-18,19.86-35.68,40.02-52.45,60.93c-16.45,20.53-33.44,41.85-42.59,66.82c-4.28,11.7-6.46,24.15-5.51,36.61
			c0.09,1.14,0.72,2.07,1.84,2.41c16.45,5.09,31.77-7.37,44.09-16.55c13.45-10.03,26.55-20.53,39.36-31.37
			c25.89-21.91,50.57-45.2,74.86-68.86c24.25-23.61,48.12-47.61,72.51-71.08c24.23-23.32,48.88-46.45,75.16-67.47
			c24.94-19.95,53.04-38.23,85-43.95c3.93-0.7,7.89-1.18,11.87-1.47c-0.8-0.61-1.61-1.22-2.41-1.84
			c6.08,23.97-7.66,46.96-23.32,63.95c-8.04,8.73-16.87,16.7-25.32,25.02c-8.47,8.33-16.68,16.92-24.64,25.74
			c-31.93,35.42-59.62,74.63-82.33,116.56c-12.11,22.36-23.53,45.95-43.01,62.96c-2.43,2.12,1.12,5.64,3.54,3.54
			c17.4-15.2,28.63-35.7,39.4-55.79c11.48-21.43,23.77-42.33,37.54-62.37c13.84-20.14,28.92-39.42,45.14-57.7
			c8.08-9.11,16.43-17.97,25.05-26.57c8.61-8.59,17.67-16.75,26.05-25.58c17.85-18.79,33.57-44.12,26.73-71.08
			c-0.25-1-1.34-1.91-2.41-1.84c-32.07,2.33-61.04,17.62-86.59,36.28c-26.75,19.55-51.27,42.32-75.33,65.05
			c-24.6,23.24-48.54,47.18-72.68,70.9c-24.09,23.68-48.41,47.16-73.78,69.48c-12.66,11.13-25.58,21.98-38.84,32.39
			c-6.65,5.22-13.38,10.32-20.21,15.3c-6.74,4.91-13.95,9.94-22.2,11.87c-4,0.94-7.97,0.87-11.9-0.35c0.61,0.8,1.22,1.61,1.84,2.41
			c-2.09-27.21,11.37-52.12,26.6-73.66c15.61-22.08,33.27-42.81,51.06-63.14c35.91-41.05,74.08-80.05,109.83-121.24
			c17.86-20.57,35.12-41.7,51.11-63.77c7.85-10.84,16.3-21.84,21.79-34.12c2.58-5.77,4.53-11.86,4.86-18.21
			c0.15-2.9-0.08-5.84-0.71-8.67c-0.62-2.78-1.32-6.2-4.08-7.46c-22.55-10.32-48.74-6.08-70.18,4.97
			c-23.1,11.9-40.57,32.07-56.19,52.33c-17.57,22.8-34.71,45.88-52.91,68.2c-18.77,23.02-38.07,45.61-57.52,68.06
			c-18.16,20.97-35.87,42.61-55.64,62.1c-9.46,9.32-19.53,18.07-30.58,25.47c-5.19,3.47-10.7,7.24-16.63,9.29
			c-4.89,1.69-11.65,2.57-14.49-2.93c-2.49-4.83-0.41-11.15,1.24-15.91c2.21-6.38,4.61-12.7,7.12-18.98
			c5.04-12.62,10.63-25.02,16.73-37.17c12.06-24.02,26.11-47.05,41.96-68.75c15.48-21.19,33.02-40.54,50.79-59.81
			c17.17-18.62,34.34-37.51,48.1-58.87c6.67-10.35,12.45-21.26,16.95-32.72c4.88-12.42,8.64-27.03,5.01-40.29
			c-1.51-5.52-4.77-10.63-10-13.25c-5.06-2.52-10.8-2.61-16.28-1.8c-5.95,0.89-11.67,2.9-17.34,4.88
			c-5.86,2.04-11.66,4.26-17.39,6.63c-45.52,18.88-86.76,47.88-119.83,84.43c-7.93,8.76-15.36,17.96-22.31,27.52
			C67.24,315.18,71.58,317.68,73.46,315.1L73.46,315.1z"/>
	</g>
</g>
<g>
	<g>
		<path class="st1" d="M101.13,162.25c3.22,0,3.22-5,0-5C97.92,157.25,97.91,162.25,101.13,162.25L101.13,162.25z"/>
	</g>
</g>
<g>
	<g>
		<path class="st1" d="M125.23,167.07c3.22,0,3.22-5,0-5C122.01,162.07,122.01,167.07,125.23,167.07L125.23,167.07z"/>
	</g>
</g>
<g>
	<g>
		<path class="st1" d="M104.75,206.83c3.22,0,3.22-5,0-5C101.53,201.83,101.52,206.83,104.75,206.83L104.75,206.83z"/>
	</g>
</g>
<g>
	<g>
		<path class="st1" d="M146.92,205.62c3.22,0,3.22-5,0-5C143.7,200.62,143.69,205.62,146.92,205.62L146.92,205.62z"/>
	</g>
</g>
<g>
	<g>
		<path class="st1" d="M146.92,180.32c3.22,0,3.22-5,0-5C143.7,175.32,143.69,180.32,146.92,180.32L146.92,180.32z"/>
	</g>
</g>
<g>
	<g>
		<path class="st1" d="M99.93,181.52c3.22,0,3.22-5,0-5C96.71,176.52,96.71,181.52,99.93,181.52L99.93,181.52z"/>
	</g>
</g>
<g>
	<g>
		<path class="st1" d="M122.82,194.78c3.22,0,3.22-5,0-5C119.6,189.78,119.6,194.78,122.82,194.78L122.82,194.78z"/>
	</g>
</g>
<g>
	<g>
		<path class="st1" d="M131.25,215.26c3.22,0,3.22-5,0-5C128.04,210.26,128.03,215.26,131.25,215.26L131.25,215.26z"/>
	</g>
</g>
<g>
	<g>
		<path class="st1" d="M146.92,156.22c3.22,0,3.22-5,0-5C143.7,151.22,143.69,156.22,146.92,156.22L146.92,156.22z"/>
	</g>
</g>
</svg>
